<?xml version="1.0" standalone="no"?>
<!DOCTYPE svg PUBLIC "-//W3C//DTD SVG 20010904//EN"
 "http://www.w3.org/TR/2001/REC-SVG-20010904/DTD/svg10.dtd">
<svg version="1.0" xmlns="http://www.w3.org/2000/svg"
 width="1300.000000pt" height="1300.000000pt" viewBox="0 0 1300.000000 1300.000000"
 preserveAspectRatio="xMidYMid meet">
<metadata>
Created by potrace 1.11, written by Peter Selinger 2001-2013
</metadata>
<g transform="translate(0.000000,1300.000000) scale(0.100000,-0.100000)"
fill="#000000" stroke="none">
<path d="M4865 11694 c-222 -34 -376 -119 -665 -369 -166 -144 -229 -187 -328
-219 -104 -34 -173 -44 -403 -56 -283 -14 -423 -36 -559 -87 -425 -159 -757
-641 -787 -1143 -11 -180 36 -385 120 -525 54 -90 150 -191 237 -251 53 -36
71 -54 76 -78 14 -62 5 -650 -15 -1026 -12 -212 -21 -464 -21 -560 0 -212 -7
-242 -100 -479 -104 -267 -115 -314 -115 -506 1 -148 3 -166 28 -239 68 -194
228 -361 450 -471 92 -46 260 -95 323 -95 l34 0 2 -1237 c2 -681 2 -1268 0
-1304 l-3 -66 -44 -6 c-25 -4 -66 -18 -92 -31 -51 -26 -153 -121 -153 -143 0
-7 -4 -13 -9 -13 -4 0 -16 -25 -25 -54 -15 -46 -17 -87 -14 -253 3 -193 4
-199 31 -254 38 -78 101 -133 249 -218 571 -326 1284 -554 2043 -655 326 -43
459 -51 865 -51 377 0 511 7 800 41 802 95 1570 343 2189 709 93 55 137 99
173 173 l33 67 0 210 c0 205 -1 211 -26 265 -49 104 -162 193 -264 206 l-44 7
-3 171 c-2 94 -2 188 0 208 l3 37 537 3 537 3 82 28 c195 66 351 220 418 414
24 69 27 91 109 803 20 168 56 481 81 695 24 215 61 530 80 700 84 734 107
929 146 1260 34 285 40 369 36 455 -16 286 -163 535 -381 644 -135 68 -111 66
-921 66 l-730 0 3 242 3 242 52 55 c67 71 89 103 132 191 112 226 126 567 34
844 -115 345 -389 616 -739 732 -82 27 -92 28 -290 28 -188 0 -215 -2 -325
-28 -451 -103 -760 -103 -1072 0 -220 73 -328 136 -623 362 -242 185 -370 281
-430 323 -142 100 -298 177 -425 211 -69 18 -241 31 -300 22z m234 -404 c104
-33 232 -109 407 -243 53 -39 103 -76 112 -82 10 -5 44 -32 77 -60 91 -76 340
-257 438 -319 159 -99 444 -204 654 -241 46 -8 147 -20 224 -26 201 -17 473 8
689 61 103 26 275 50 351 50 169 -1 328 -72 467 -208 153 -150 227 -340 227
-582 0 -205 -64 -345 -197 -430 -82 -53 -231 -110 -423 -160 -150 -40 -342
-97 -705 -211 -242 -76 -383 -104 -520 -103 -103 1 -137 6 -325 52 -335 81
-478 89 -691 37 -96 -23 -155 -43 -414 -140 -69 -25 -172 -57 -230 -71 -94
-21 -122 -23 -270 -20 -264 7 -399 52 -934 310 -340 165 -502 224 -781 286
-55 13 -106 25 -114 28 -12 5 -13 -117 -8 -864 8 -960 10 -2375 3 -2381 -8 -8
-103 21 -171 52 -118 54 -226 150 -260 231 -22 52 -29 181 -14 250 15 71 13
63 27 97 7 16 12 31 12 34 0 3 22 60 49 126 27 67 63 167 81 222 l33 100 8
295 c4 162 15 417 23 565 22 385 28 728 19 1044 l-8 274 -85 27 c-224 70 -336
219 -344 457 -9 286 169 629 412 790 129 86 223 108 552 128 135 8 277 20 315
26 169 25 362 101 479 187 28 20 109 88 181 151 265 231 390 298 538 285 32
-3 84 -13 116 -24z m3361 -2988 l0 -439 -92 -43 c-458 -215 -785 -323 -1257
-416 -348 -69 -728 -104 -1116 -104 -875 0 -1640 168 -2377 523 l-88 42 0 422
0 423 48 -19 c99 -40 214 -93 412 -189 391 -191 577 -254 840 -288 145 -19
268 -14 440 15 110 19 169 38 540 170 252 91 363 94 655 20 212 -54 307 -69
442 -69 197 0 380 41 843 189 135 43 308 95 385 116 77 20 174 47 215 60 41
12 83 23 93 24 16 1 17 -26 17 -437z m1825 -223 c101 -28 185 -152 206 -304
11 -73 8 -113 -35 -470 -51 -430 -66 -557 -72 -619 -2 -22 -12 -115 -23 -206
-22 -183 -92 -780 -146 -1255 -58 -506 -104 -909 -125 -1083 -16 -136 -23
-170 -47 -213 -34 -62 -81 -103 -151 -129 -50 -19 -79 -20 -547 -20 l-495 0 0
179 c0 99 -3 186 -6 195 -5 13 37 15 368 18 371 3 373 3 411 26 20 13 49 39
64 58 30 40 25 1 208 1604 19 168 39 341 45 385 5 44 25 217 44 385 20 168 49
423 66 567 38 332 38 356 1 414 -55 87 -30 84 -656 87 l-550 2 2 183 c1 100 2
188 3 195 0 16 1374 18 1435 1z m-6656 -687 c47 -22 107 -47 133 -58 l48 -19
0 -925 c0 -509 0 -1302 0 -1763 0 -672 2 -837 12 -831 10 6 11 4 1 -7 -19 -19
-17 -379 2 -484 42 -235 243 -440 480 -490 147 -31 285 -13 419 54 146 73 256
197 314 353 l27 73 3 1843 2 1842 23 -5 c12 -2 67 -9 122 -15 55 -6 110 -13
123 -15 l22 -5 0 -1873 c0 -1234 4 -1894 10 -1937 59 -369 419 -611 774 -520
239 61 431 266 470 500 3 19 6 889 7 1933 0 1043 2 1897 2 1897 1 1 66 9 144
18 111 14 143 15 147 6 3 -7 5 -827 6 -1823 l0 -1810 23 -80 c109 -375 532
-558 886 -384 101 50 222 168 273 268 72 141 72 134 75 860 1 358 3 1251 3
1985 l1 1335 122 53 c67 30 130 56 140 59 16 5 17 -109 17 -2294 l0 -2299
-122 -59 c-591 -283 -1194 -439 -1918 -496 -161 -12 -689 -12 -850 0 -712 56
-1328 212 -1882 479 l-158 75 0 326 c0 593 0 3923 0 4099 0 94 3 172 6 172 4
0 45 -17 93 -38z m6044 -79 c3 -5 -6 -96 -18 -203 -13 -107 -39 -334 -59 -505
-20 -170 -54 -465 -76 -655 -42 -368 -61 -528 -115 -1010 -19 -168 -38 -322
-41 -342 l-6 -38 -254 0 -254 0 -1 153 c-1 83 0 701 0 1372 1 671 1 1223 1
1228 0 4 184 7 409 7 226 0 412 -3 414 -7z m-5437 -166 c5 -1 8 -5 7 -9 -2 -4
8 -4 20 1 14 6 30 5 40 -1 10 -5 30 -12 45 -14 15 -3 61 -13 102 -24 41 -10
88 -22 104 -25 23 -5 27 -8 15 -16 -9 -6 0 -7 28 -3 34 5 44 3 49 -10 5 -13
10 -14 20 -5 11 9 13 -143 14 -950 0 -911 -1 -961 -17 -962 -60 -2 -74 -13
-256 -195 -103 -103 -187 -191 -187 -196 0 -4 -3 -8 -7 -8 -6 0 -8 2257 -3
2435 0 6 4 4 9 -3 4 -8 12 -14 17 -15z m3549 -1397 c0 -1202 -2 -1419 -14
-1415 -10 4 -9 -1 3 -21 17 -25 17 -26 -11 -50 -15 -13 -31 -24 -35 -24 -5 0
-8 -15 -8 -32 0 -25 -3 -29 -10 -18 -5 8 -10 10 -10 4 0 -5 7 -19 15 -30 17
-23 19 -60 3 -70 -8 -5 -9 0 -5 16 3 13 2 19 -2 14 -5 -5 -11 -25 -15 -44 -4
-28 -3 -31 5 -17 10 18 12 18 30 -2 11 -12 23 -21 27 -21 10 0 31 -48 23 -52
-4 -2 -5 -32 -2 -68 7 -79 5 -469 -2 -527 -8 -57 -43 -122 -72 -133 -14 -5
-25 -13 -25 -18 0 -18 -65 -44 -121 -47 -65 -5 -92 1 -82 18 4 6 -2 8 -15 5
-28 -8 -63 18 -55 40 6 15 5 16 -12 2 -17 -14 -18 -13 -12 4 5 13 3 17 -6 13
-14 -5 -43 31 -39 47 2 5 -2 12 -9 16 -6 4 -13 35 -16 69 -4 50 -2 66 12 81
10 11 22 17 26 14 5 -3 9 0 9 6 0 7 -7 10 -17 6 -15 -5 -15 -4 1 9 11 8 15 15
9 15 -17 0 -44 -30 -38 -41 4 -5 1 -9 -5 -9 -7 0 -10 6 -7 13 2 6 0 20 -4 29
-6 11 -4 22 6 31 8 8 12 17 9 19 -2 3 -5 468 -5 1034 0 566 -4 1048 -8 1072
-7 35 -6 40 5 31 11 -9 14 -8 14 0 0 7 5 9 11 5 8 -4 7 -9 -2 -15 -20 -12 -20
-49 -1 -41 12 4 14 1 8 -13 -4 -11 -4 -16 0 -12 4 4 16 0 26 -9 14 -14 16 -20
6 -33 -7 -9 -8 -13 -3 -8 4 4 18 -1 29 -10 l21 -18 -20 23 -19 23 27 -5 c15
-2 27 -2 28 2 0 4 2 14 4 23 1 9 -1 22 -5 29 -6 10 -12 9 -26 -5 -17 -17 -17
-17 2 -11 15 4 21 2 21 -9 0 -10 -8 -13 -26 -10 -36 6 -59 38 -55 75 2 16 -1
31 -6 31 -6 1 -14 2 -19 3 -5 0 -13 5 -18 10 -5 5 -3 6 5 2 12 -7 17 5 7 16
-9 9 -11 1258 -2 1258 5 0 6 -4 2 -9 -3 -5 -1 -12 4 -16 6 -3 8 3 6 14 -2 13
3 22 16 26 11 4 18 9 16 12 -3 2 -15 0 -26 -7 -12 -6 -21 -7 -21 -2 0 15 42
22 63 10 13 -7 17 -7 13 0 -8 13 29 26 45 16 8 -4 9 -3 5 4 -7 11 12 16 66 16
9 0 15 3 12 8 -3 4 1 8 8 8 7 0 24 3 38 6 20 5 22 4 10 -6 -13 -9 -12 -11 5
-7 11 2 19 8 18 13 -2 12 7 13 92 15 46 1 53 3 30 8 l-30 7 45 16 c25 9 47 17
50 17 3 1 5 -638 5 -1419z m-1674 1141 c-7 -13 -5 -17 9 -17 14 0 16 4 9 12
-7 8 -6 14 1 19 5 3 10 0 11 -7 0 -10 2 -10 6 0 2 6 12 12 20 12 12 0 13 -3 3
-15 -13 -15 -6 -35 13 -35 8 0 7 4 -2 9 -12 8 -12 12 2 25 18 18 47 11 47 -11
0 -9 -8 -22 -17 -29 -10 -7 -19 -17 -19 -23 -1 -6 -2 -16 -3 -22 0 -5 -5 -8
-10 -4 -5 3 -13 0 -17 -6 -4 -7 -3 -9 3 -6 13 8 36 -17 25 -28 -4 -5 -1 -5 6
-1 9 5 10 12 3 20 -5 6 -6 17 -2 24 6 10 11 10 20 -2 10 -12 12 -76 11 -263
-1 -136 -3 -259 -4 -273 -1 -14 2 -30 7 -37 5 -7 6 -17 2 -22 -3 -6 -6 -681
-5 -1501 0 -1198 -2 -1490 -12 -1490 -10 0 -10 -2 -1 -8 6 -4 10 -19 10 -35
-2 -24 -3 -25 -14 -10 -12 15 -13 15 -13 1 0 -9 -6 -15 -12 -14 -26 4 -40 19
-35 38 3 11 3 17 0 14 -4 -3 -16 2 -27 11 -21 18 -21 18 -3 -3 15 -18 15 -22
4 -27 -8 -3 -21 0 -28 6 -11 10 -11 9 0 -5 7 -10 17 -16 21 -13 4 3 19 -4 32
-15 14 -11 28 -16 32 -13 3 3 6 2 6 -3 0 -6 -5 -15 -12 -22 -9 -9 -14 -7 -24
6 -12 16 -14 16 -31 0 -10 -11 -13 -18 -5 -18 7 0 12 5 12 12 0 9 3 9 12 0 10
-10 10 -15 -2 -22 -13 -8 -13 -10 1 -10 9 0 19 3 23 7 11 11 35 12 42 2 3 -5
2 -9 -3 -8 -19 3 -31 -2 -37 -17 -6 -15 -4 -15 11 -3 9 8 14 9 10 3 -12 -21
-86 -66 -97 -59 -6 3 -9 1 -8 -6 4 -17 -48 -29 -85 -18 -40 11 -46 11 -27 -1
13 -9 13 -10 0 -10 -9 0 -26 8 -39 17 -14 9 -21 11 -17 5 4 -8 2 -10 -7 -6 -8
3 -14 12 -13 21 0 9 -6 18 -14 20 -13 4 -13 3 0 -6 13 -10 13 -11 0 -11 -14 0
-54 35 -89 75 -7 9 -14 27 -15 40 0 13 -4 21 -8 18 -9 -5 -10 7 -13 150 -1 59
2 110 7 113 4 3 8 10 8 15 0 6 -4 8 -9 5 -5 -3 -8 15 -7 42 1 26 -2 55 -6 64
-4 9 -5 19 -1 21 5 3 8 486 7 1074 0 597 3 1076 8 1086 5 9 13 17 19 17 6 0 8
-4 5 -8 -7 -12 32 -8 45 5 7 7 3 17 -11 34 -12 13 -19 19 -16 12 4 -6 -7 -21
-23 -32 -33 -24 -49 -27 -33 -8 6 7 9 24 6 38 -5 22 -4 23 9 7 8 -10 17 -15
20 -12 3 4 -4 15 -16 25 -19 15 -20 21 -10 38 7 11 9 22 5 25 -4 2 -8 238 -7
523 l0 518 93 1 c55 1 88 -2 80 -7 -9 -6 -4 -9 15 -9 15 0 27 3 27 8 0 4 27 8
60 8 57 1 60 0 55 -20 -5 -19 -5 -19 5 -3 7 10 9 25 6 34 -5 13 -4 14 9 3 10
-8 12 -17 6 -29z m116 -55 c0 -8 -6 -12 -14 -9 -7 3 -10 9 -7 14 8 14 21 11
21 -5z m-404 -1081 c4 -8 1 -17 -5 -21 -7 -5 -8 -2 -3 6 6 10 4 12 -10 6 -15
-5 -16 -4 -5 9 15 19 16 19 23 0z m-103 -49 c0 -2 -8 -10 -17 -17 -16 -13 -17
-12 -4 4 13 16 21 21 21 13z m1615 -16 c3 -5 1 -10 -4 -10 -6 0 -11 5 -11 10
0 6 2 10 4 10 3 0 8 -4 11 -10z m-2647 -602 c3 -24 0 -28 -21 -28 -14 0 -44
-16 -67 -35 -23 -19 -38 -35 -33 -35 5 0 19 9 31 20 24 23 38 25 45 8 3 -8 6
-6 6 5 1 9 8 17 17 17 13 0 15 -14 12 -92 -2 -53 -7 -93 -13 -94 -5 0 -18 -4
-29 -9 -10 -4 -31 -8 -46 -9 -15 -1 -26 -4 -24 -8 3 -4 -6 -14 -19 -23 -13 -8
-30 -33 -37 -55 -7 -22 -16 -38 -19 -35 -11 6 -11 -87 -1 -126 16 -59 121
-155 155 -143 6 3 10 -14 9 -38 -1 -36 0 -37 3 -8 2 19 8 39 14 44 5 6 8 -48
6 -137 -1 -106 -5 -148 -14 -152 -7 -2 -13 0 -13 5 0 6 5 10 10 10 15 0 12 17
-4 23 -11 4 -13 1 -9 -10 5 -11 3 -14 -6 -8 -10 6 -11 3 -2 -13 15 -27 14 -29
-8 -27 -21 1 -91 59 -91 75 0 5 -5 10 -10 10 -6 0 -57 48 -114 106 -94 95
-104 109 -100 137 2 17 8 33 13 36 15 10 5 88 -18 126 l-21 37 20 45 c26 60
25 64 -5 23 -30 -41 -31 -68 -4 -122 14 -27 19 -52 16 -72 -3 -17 -9 -50 -12
-73 l-8 -43 150 -150 c157 -158 173 -168 221 -134 21 15 22 14 22 -20 0 -44
-26 -60 -82 -53 -34 5 -58 24 -201 166 l-162 161 1 48 c1 26 5 68 9 93 5 32 4
49 -4 54 -9 5 -10 -3 -6 -29 5 -22 3 -42 -4 -50 -17 -20 -28 -121 -13 -112 11
6 17 -12 13 -37 0 -4 3 -6 7 -5 11 4 76 -52 69 -59 -8 -7 17 -56 37 -72 23
-19 20 -4 -4 21 -32 35 -23 42 14 11 19 -15 34 -35 33 -43 -1 -8 4 -15 11 -15
7 0 46 -33 87 -74 58 -57 81 -74 107 -76 18 -2 36 -3 41 -4 4 -1 7 -126 8
-278 0 -153 3 -286 7 -295 6 -16 6 222 -1 485 -1 74 1 97 11 97 10 0 12 -68
12 -336 -1 -289 -4 -336 -17 -341 -11 -4 -12 -8 -3 -13 7 -4 9 -13 5 -20 -6
-9 -9 -9 -16 1 -6 9 -8 4 -6 -16 1 -18 -3 -29 -9 -28 -7 1 -15 -9 -18 -22 -6
-23 -35 -46 -63 -51 -7 -1 -25 -8 -40 -16 -15 -8 -51 -13 -78 -13 -59 2 -147
39 -139 58 3 8 -3 20 -12 28 -16 13 -17 12 -11 -6 5 -15 1 -13 -18 8 -14 16
-23 33 -20 38 4 5 1 9 -6 9 -6 0 -9 8 -6 20 3 11 1 18 -4 14 -5 -3 -9 3 -9 13
0 10 -1 303 -2 651 -2 347 1 619 5 602 4 -16 12 -30 17 -30 5 0 4 14 -2 33
-14 45 -11 75 11 105 36 50 351 357 378 369 43 19 67 12 71 -19z m0 -441 l2
-187 -24 0 c-57 0 -122 45 -153 105 -25 48 -20 126 11 179 32 54 108 100 151
91 6 -1 11 -74 13 -188z m3082 -439 c-14 -13 -19 -25 -14 -37 4 -9 7 -32 6
-53 -1 -24 4 -38 13 -42 8 -3 15 -16 15 -28 0 -22 0 -22 -26 4 -23 22 -27 36
-30 92 -2 61 0 69 24 92 22 20 28 22 30 8 2 -9 -6 -25 -18 -36z m20 -30 c0
-16 -3 -19 -11 -11 -6 6 -8 16 -5 22 11 17 16 13 16 -11z m0 -74 c0 -8 -4 -12
-10 -9 -5 3 -10 10 -10 16 0 5 5 9 10 9 6 0 10 -7 10 -16z m-1580 -968 c0 -8
-7 -16 -15 -20 -12 -4 -13 -2 -2 14 14 24 17 25 17 6z m2600 -641 l0 -95 -47
-30 c-71 -45 -433 -222 -548 -269 -787 -318 -1676 -461 -2555 -411 -888 51
-1666 261 -2357 637 -116 64 -123 69 -123 98 0 17 -6 37 -13 44 -9 11 -9 13 1
7 9 -5 12 7 12 48 0 31 3 56 6 56 3 0 36 -17 72 -38 576 -332 1296 -547 2132
-639 235 -26 982 -26 1210 0 687 78 1198 208 1735 442 132 57 330 158 420 213
28 17 51 31 53 31 1 1 2 -42 2 -94z m-2820 -259 c0 -2 -8 -10 -17 -17 -16 -13
-17 -12 -4 4 13 16 21 21 21 13z"/>
<path d="M4370 7100 c8 -5 20 -10 25 -10 6 0 3 5 -5 10 -8 5 -19 10 -25 10 -5
0 -3 -5 5 -10z"/>
<path d="M4268 7083 c6 -2 18 -2 25 0 6 3 1 5 -13 5 -14 0 -19 -2 -12 -5z"/>
<path d="M4598 7043 c7 -3 16 -2 19 1 4 3 -2 6 -13 5 -11 0 -14 -3 -6 -6z"/>
<path d="M4570 7030 c8 -5 24 -10 34 -10 26 0 18 6 -19 14 -22 5 -26 4 -15 -4z"/>
<path d="M4655 6085 c0 -511 1 -719 2 -462 2 258 2 676 0 930 -1 254 -2 44 -2
-468z"/>
<path d="M4598 5143 c7 -3 16 -2 19 1 4 3 -2 6 -13 5 -11 0 -14 -3 -6 -6z"/>
<path d="M4407 4984 c3 -7 9 -14 14 -14 14 0 10 17 -5 23 -10 4 -13 1 -9 -9z"/>
<path d="M4327 4904 c3 -7 9 -14 14 -14 14 0 10 17 -5 23 -10 4 -13 1 -9 -9z"/>
<path d="M4222 4845 c0 -16 2 -22 5 -12 2 9 2 23 0 30 -3 6 -5 -1 -5 -18z"/>
<path d="M7748 7143 c7 -3 16 -2 19 1 4 3 -2 6 -13 5 -11 0 -14 -3 -6 -6z"/>
<path d="M7638 7103 c7 -3 16 -2 19 1 4 3 -2 6 -13 5 -11 0 -14 -3 -6 -6z"/>
<path d="M7738 7093 c7 -3 16 -2 19 1 4 3 -2 6 -13 5 -11 0 -14 -3 -6 -6z"/>
<path d="M7370 7020 c-11 -8 -7 -9 15 -4 37 8 45 14 19 14 -10 0 -26 -5 -34
-10z"/>
<path d="M7313 5785 c0 -8 4 -15 9 -15 4 0 8 7 8 15 0 8 -4 15 -8 15 -5 0 -9
-7 -9 -15z"/>
<path d="M7337 5765 c-4 -8 -3 -16 1 -19 4 -3 9 4 9 15 2 23 -3 25 -10 4z"/>
<path d="M7386 5674 c-5 -14 -4 -15 9 -4 17 14 19 20 6 20 -5 0 -12 -7 -15
-16z"/>
<path d="M7505 5610 c3 -5 8 -10 11 -10 2 0 4 5 4 10 0 6 -5 10 -11 10 -5 0
-7 -4 -4 -10z"/>
<path d="M7466 5594 c-5 -14 -4 -15 9 -4 17 14 19 20 6 20 -5 0 -12 -7 -15
-16z"/>
<path d="M7481 5573 c-12 -13 -11 -15 6 -9 14 4 20 2 20 -9 0 -19 -42 -12 -71
12 -19 16 -19 16 1 -8 16 -17 20 -29 13 -37 -6 -7 -7 -10 -3 -7 3 3 16 -3 27
-12 l21 -18 -20 23 -19 23 27 -5 c26 -5 30 -2 30 29 0 40 -9 45 -32 18z"/>
<path d="M7546 5514 c-5 -14 -4 -15 9 -4 17 14 19 20 6 20 -5 0 -12 -7 -15
-16z"/>
<path d="M7563 5495 c-7 -8 -9 -16 -4 -20 5 -3 11 1 14 7 2 7 8 10 12 6 10
-10 -25 -49 -36 -42 -5 3 -6 11 -2 17 4 7 -1 6 -11 -2 -12 -10 -14 -17 -6 -25
14 -14 13 -29 -2 -20 -7 5 -8 3 -3 -6 6 -10 12 -7 26 11 10 13 23 24 30 24 13
0 20 29 12 51 -6 17 -15 17 -30 -1z"/>
<path d="M7500 5496 c0 -2 8 -10 18 -17 15 -13 16 -12 3 4 -13 16 -21 21 -21
13z"/>
<path d="M7565 5419 c-4 -6 -5 -12 -2 -15 2 -3 7 2 10 11 7 17 1 20 -8 4z"/>
<path d="M7452 3786 c-7 -13 -11 -48 -4 -41 3 3 12 -1 21 -7 9 -7 13 -8 9 -4
-4 5 -2 16 4 24 7 8 13 19 14 26 2 14 -35 16 -44 2z m27 -23 c-10 -11 -14 -11
-20 -1 -10 17 -2 28 17 21 11 -4 12 -8 3 -20z"/>
<path d="M7545 3770 c-3 -5 -2 -10 4 -10 5 0 13 5 16 10 3 6 2 10 -4 10 -5 0
-13 -4 -16 -10z"/>
<path d="M7495 3740 c-3 -5 -1 -10 4 -10 6 0 11 5 11 10 0 6 -2 10 -4 10 -3 0
-8 -4 -11 -10z"/>
<path d="M7439 3713 c-13 -16 -12 -17 4 -4 16 13 21 21 13 21 -2 0 -10 -8 -17
-17z"/>
<path d="M7370 3706 c-6 -6 -5 -16 1 -28 8 -15 6 -25 -8 -41 l-18 -21 27 20
c14 10 24 21 22 23 -2 2 2 11 8 19 7 8 13 19 14 26 2 14 -32 16 -46 2z m29
-23 c-10 -11 -14 -11 -20 -1 -10 17 -2 28 17 21 11 -4 12 -8 3 -20z"/>
<path d="M7471 3704 c-7 -8 -11 -17 -9 -20 3 -2 13 5 23 16 10 11 14 20 9 20
-5 -1 -15 -8 -23 -16z"/>
<path d="M7481 3668 c-13 -21 -13 -22 2 -10 9 8 21 11 26 7 7 -3 8 0 5 9 -8
22 -17 20 -33 -6z"/>
<path d="M7415 3660 c-3 -5 -1 -10 4 -10 6 0 11 5 11 10 0 6 -2 10 -4 10 -3 0
-8 -4 -11 -10z"/>
<path d="M7315 3630 c-3 -5 -1 -10 5 -10 6 0 8 -6 4 -12 -4 -7 -3 -9 1 -5 12
10 15 37 5 37 -5 0 -12 -4 -15 -10z"/>
<path d="M7371 3604 c-7 -8 -11 -17 -9 -20 3 -2 13 5 23 16 10 11 14 20 9 20
-5 -1 -15 -8 -23 -16z"/>
<path d="M7404 3588 c-14 -17 -15 -20 -2 -9 9 7 22 10 27 6 7 -3 8 0 5 9 -8
20 -7 20 -30 -6z"/>
<path d="M7335 3580 c-3 -5 -1 -10 4 -10 6 0 11 5 11 10 0 6 -2 10 -4 10 -3 0
-8 -4 -11 -10z"/>
<path d="M7322 3420 c0 -14 2 -19 5 -12 2 6 2 18 0 25 -3 6 -5 1 -5 -13z"/>
<path d="M7342 3370 c0 -14 2 -19 5 -12 2 6 2 18 0 25 -3 6 -5 1 -5 -13z"/>
<path d="M7345 3321 c-3 -5 -1 -12 5 -16 5 -3 10 1 10 9 0 18 -6 21 -15 7z"/>
<path d="M7387 3313 c-3 -5 5 -8 18 -8 13 0 21 3 18 8 -2 4 -10 7 -18 7 -8 0
-16 -3 -18 -7z"/>
<path d="M7610 3223 l-35 -14 34 6 c34 5 49 12 40 18 -2 2 -20 -3 -39 -10z"/>
<path d="M7504 3216 c-10 -10 -4 -13 30 -13 29 0 33 1 12 4 -22 4 -26 7 -15
14 12 7 12 9 -1 8 -8 0 -20 -6 -26 -13z"/>
<path d="M5820 6890 c-21 -7 -21 -8 -5 -9 11 0 27 4 35 9 18 11 5 11 -30 0z"/>
<path d="M6050 6856 c0 -2 13 -6 29 -8 17 -2 28 -1 25 4 -5 8 -54 12 -54 4z"/>
<path d="M6155 6840 c10 -11 20 -20 23 -20 3 0 -3 9 -13 20 -10 11 -20 20 -23
20 -3 0 3 -9 13 -20z"/>
<path d="M6216 6787 c3 -10 9 -15 12 -12 3 3 0 11 -7 18 -10 9 -11 8 -5 -6z"/>
<path d="M6172 6278 c-7 -7 -12 -16 -12 -21 0 -5 7 -1 16 8 9 9 14 18 12 20
-2 3 -10 -1 -16 -7z"/>
<path d="M6167 6233 c-4 -3 -7 -11 -7 -17 0 -6 5 -5 12 2 6 6 9 14 7 17 -3 3
-9 2 -12 -2z"/>
<path d="M6190 6215 c-7 -9 -8 -15 -2 -15 5 0 12 7 16 15 3 8 4 15 2 15 -2 0
-9 -7 -16 -15z"/>
<path d="M6160 6190 c8 -5 20 -10 25 -10 6 0 3 5 -5 10 -8 5 -19 10 -25 10 -5
0 -3 -5 5 -10z"/>
<path d="M6104 6168 l-19 -23 23 19 c21 18 27 26 19 26 -2 0 -12 -10 -23 -22z"/>
<path d="M6202 6178 c2 -7 -1 -12 -7 -11 -5 1 -11 -15 -12 -35 -1 -29 0 -33 8
-19 6 9 14 15 18 13 4 -3 8 1 8 9 0 8 -5 15 -10 15 -5 0 -4 6 2 14 8 10 9 16
1 21 -6 4 -9 1 -8 -7z"/>
<path d="M6125 6150 c-16 -17 -25 -30 -21 -30 10 0 59 50 54 56 -3 2 -17 -10
-33 -26z"/>
<path d="M6149 6123 c-13 -16 -12 -17 4 -4 16 13 21 21 13 21 -2 0 -10 -8 -17
-17z"/>
<path d="M6090 6099 c0 -5 5 -7 10 -4 6 3 10 8 10 11 0 2 -4 4 -10 4 -5 0 -10
-5 -10 -11z"/>
<path d="M6127 6101 c2 -2 -3 -11 -9 -19 -20 -23 -18 -42 3 -39 33 5 42 22 22
43 -10 11 -17 18 -16 15z m17 -43 c-3 -4 -11 -5 -20 -1 -11 4 -12 8 -3 20 10
11 14 11 20 1 4 -6 6 -15 3 -20z"/>
<path d="M6045 6070 c-3 -5 -1 -10 4 -10 6 0 11 5 11 10 0 6 -2 10 -4 10 -3 0
-8 -4 -11 -10z"/>
<path d="M6062 6040 c-13 -10 -22 -22 -21 -26 0 -4 -18 -22 -41 -40 -24 -19
-39 -34 -35 -34 4 0 1 -7 -6 -16 -19 -23 -19 -41 0 -39 32 2 42 15 30 36 -8
16 -7 25 7 40 18 20 40 27 29 9 -7 -11 23 -9 43 3 9 6 9 13 1 28 -8 16 -7 25
7 40 22 24 16 24 -14 -1z m2 -62 c-3 -4 -11 -5 -20 -1 -11 4 -12 8 -3 20 10
11 14 11 20 1 4 -6 6 -15 3 -20z m-80 -80 c-3 -4 -11 -5 -20 -1 -11 4 -12 8
-3 20 10 11 14 11 20 1 4 -6 6 -15 3 -20z"/>
<path d="M6002 6026 c7 -8 17 -12 22 -9 4 3 2 9 -5 14 -22 13 -31 11 -17 -5z"/>
<path d="M5965 5990 c-3 -5 -1 -10 4 -10 6 0 11 5 11 10 0 6 -2 10 -4 10 -3 0
-8 -4 -11 -10z"/>
<path d="M5864 5928 l-19 -23 23 19 c21 18 27 26 19 26 -2 0 -12 -10 -23 -22z"/>
<path d="M5930 5939 c0 -5 5 -7 10 -4 6 3 10 8 10 11 0 2 -4 4 -10 4 -5 0 -10
-5 -10 -11z"/>
<path d="M5885 5910 c-3 -5 -1 -10 4 -10 6 0 11 5 11 10 0 6 -2 10 -4 10 -3 0
-8 -4 -11 -10z"/>
<path d="M5909 5883 c-13 -16 -12 -17 4 -4 9 7 17 15 17 17 0 8 -8 3 -21 -13z"/>
<path d="M5847 5865 c3 -8 9 -12 14 -9 12 7 11 11 -5 17 -10 4 -13 1 -9 -8z"/>
<path d="M5882 5863 c2 -6 -11 -24 -28 -40 -16 -15 -23 -22 -14 -15 19 14 34
16 26 4 -7 -12 32 -8 45 5 7 7 3 17 -11 34 -11 13 -19 19 -18 12z m22 -45 c-3
-4 -11 -5 -20 -1 -11 4 -12 8 -3 20 10 11 14 11 20 1 4 -6 6 -15 3 -20z"/>
<path d="M5805 5830 c-3 -5 -1 -10 4 -10 6 0 11 5 11 10 0 6 -2 10 -4 10 -3 0
-8 -4 -11 -10z"/>
<path d="M5750 3555 c0 -7 30 -13 34 -7 3 4 -4 9 -15 9 -10 1 -19 0 -19 -2z"/>
<path d="M5805 3540 c-16 -11 -30 -25 -30 -32 0 -7 -3 -18 -7 -23 -4 -6 -3
-17 2 -25 7 -11 11 -10 25 3 9 9 13 21 10 27 -11 18 8 11 34 -12 l26 -23 -19
22 c-10 12 -16 29 -13 38 6 13 4 13 -17 -1 -16 -10 -26 -12 -31 -5 -3 6 -3 11
2 11 9 0 61 39 53 40 -3 0 -18 -9 -35 -20z m-10 -60 c-3 -5 -11 -10 -16 -10
-6 0 -7 5 -4 10 3 6 11 10 16 10 6 0 7 -4 4 -10z"/>
<path d="M5884 3453 c11 -13 14 -23 8 -23 -6 0 -14 5 -17 10 -4 6 -11 8 -16 4
-6 -4 -6 -11 2 -20 6 -7 15 -12 19 -9 4 3 21 -5 36 -17 l29 -22 -19 22 c-11
13 -16 28 -12 39 4 9 4 14 0 10 -4 -4 -17 1 -28 10 -21 18 -21 18 -2 -4z"/>
<path d="M5800 3445 c-7 -9 -8 -15 -2 -15 5 0 12 7 16 15 3 8 4 15 2 15 -2 0
-9 -7 -16 -15z"/>
<path d="M5828 3413 c12 -2 20 -8 18 -12 -3 -4 -1 -13 4 -21 7 -11 11 -10 26
5 17 17 17 17 -4 11 -16 -5 -22 -4 -20 6 2 7 -7 13 -22 14 -22 2 -22 2 -2 -3z"/>
<path d="M5965 3372 l19 -23 -27 5 c-15 2 -27 1 -27 -4 0 -5 -10 -11 -22 -13
l-23 -4 23 -2 c13 0 21 -5 18 -9 -2 -4 -1 -14 4 -22 7 -11 11 -10 26 5 17 17
17 17 -2 11 -15 -4 -21 -2 -21 9 0 19 42 12 71 -12 l21 -18 -19 22 c-11 14
-16 29 -12 40 4 9 4 14 0 10 -4 -4 -17 1 -28 10 l-21 18 20 -23z"/>
<path d="M5880 3365 c-7 -9 -8 -15 -2 -15 5 0 12 7 16 15 3 8 4 15 2 15 -2 0
-9 -7 -16 -15z"/>
<path d="M6045 3292 l19 -23 -27 5 c-15 2 -27 1 -27 -4 0 -5 -10 -11 -22 -13
l-23 -4 23 -2 c13 0 21 -5 18 -9 -2 -4 -1 -14 4 -22 7 -11 11 -10 26 5 17 17
17 17 -2 11 -15 -4 -21 -2 -21 9 0 19 42 12 71 -12 l21 -18 -19 22 c-11 14
-16 29 -12 40 4 9 4 14 0 10 -4 -4 -17 1 -28 10 l-21 18 20 -23z"/>
<path d="M5960 3285 c-7 -9 -8 -15 -2 -15 5 0 12 7 16 15 3 8 4 15 2 15 -2 0
-9 -7 -16 -15z"/>
<path d="M6145 3230 c-3 -6 1 -7 9 -4 18 7 21 14 7 14 -6 0 -13 -4 -16 -10z"/>
<path d="M6040 3205 c-7 -9 -8 -15 -2 -15 5 0 12 7 16 15 3 8 4 15 2 15 -2 0
-9 -7 -16 -15z"/>
<path d="M6177 3201 c-4 -17 -3 -21 5 -13 5 5 8 16 6 23 -3 8 -7 3 -11 -10z"/>
<path d="M6068 3173 c12 -2 20 -8 18 -12 -3 -4 -1 -13 4 -21 7 -11 11 -10 26
5 17 17 17 17 -4 11 -16 -5 -22 -4 -20 6 2 7 -7 13 -22 14 -22 2 -22 2 -2 -3z"/>
<path d="M5803 3153 c-7 -2 -13 -10 -13 -16 0 -8 3 -8 12 1 9 9 15 7 25 -6 13
-15 13 -15 3 6 -6 12 -12 22 -13 21 -1 0 -8 -3 -14 -6z"/>
<path d="M5800 3109 c0 -5 5 -7 10 -4 6 3 10 8 10 11 0 2 -4 4 -10 4 -5 0 -10
-5 -10 -11z"/>
<path d="M5816 3091 c-3 -5 1 -14 8 -20 10 -9 16 -9 21 -1 4 6 3 10 -2 9 -20
-3 -27 2 -13 11 9 6 10 10 3 10 -6 0 -14 -4 -17 -9z"/>
<path d="M5890 3066 c0 -4 7 -14 15 -22 8 -9 15 -11 15 -6 0 5 -7 15 -15 22
-8 7 -15 9 -15 6z"/>
<path d="M6080 3068 c0 -2 9 -11 20 -21 11 -9 20 -13 20 -7 0 5 -9 14 -20 20
-11 6 -20 9 -20 8z"/>
<path d="M4449 4875 c-57 -58 -105 -107 -106 -108 -1 -2 10 -3 25 -2 22 0 27
5 25 23 -2 12 2 22 9 22 6 0 17 8 24 17 7 10 21 18 31 18 11 0 18 7 18 18 0
10 8 23 18 28 9 6 17 16 17 24 0 9 8 14 22 12 18 -2 23 3 23 26 1 15 0 27 0
27 -1 0 -48 -47 -106 -105z m101 65 c0 -5 -4 -10 -10 -10 -5 0 -10 5 -10 10 0
6 5 10 10 10 6 0 10 -4 10 -10z m-80 -80 c0 -5 -4 -10 -10 -10 -5 0 -10 5 -10
10 0 6 5 10 10 10 6 0 10 -4 10 -10z m-80 -80 c0 -5 -4 -10 -10 -10 -5 0 -10
5 -10 10 0 6 5 10 10 10 6 0 10 -4 10 -10z"/>
<path d="M4652 4960 c0 -14 2 -19 5 -12 2 6 2 18 0 25 -3 6 -5 1 -5 -13z"/>
<path d="M4382 4550 c0 -14 2 -19 5 -12 2 6 2 18 0 25 -3 6 -5 1 -5 -13z"/>
<path d="M4370 4402 c0 -5 7 -15 15 -22 8 -7 15 -8 15 -2 0 5 -7 15 -15 22 -8
7 -15 8 -15 2z"/>
<path d="M4462 4346 c7 -8 15 -12 17 -11 5 6 -10 25 -20 25 -5 0 -4 -6 3 -14z"/>
<path d="M4250 4322 c0 -4 9 -13 20 -20 23 -14 26 -7 6 14 -16 15 -26 18 -26
6z"/>
<path d="M4445 4320 c3 -5 11 -10 16 -10 6 0 7 5 4 10 -3 6 -11 10 -16 10 -6
0 -7 -4 -4 -10z"/>
<path d="M4582 4184 c10 -10 20 -15 24 -12 3 4 -5 12 -18 18 -22 12 -22 12 -6
-6z"/>
<path d="M4422 4150 c12 -19 28 -27 28 -14 0 7 -27 34 -34 34 -4 0 -1 -9 6
-20z"/>
<path d="M4510 4065 c0 -2 10 -10 23 -16 20 -11 21 -11 8 4 -13 16 -31 23 -31
12z"/>
<path d="M4567 3313 c-4 -3 -7 -11 -7 -17 0 -6 5 -5 12 2 6 6 9 14 7 17 -3 3
-9 2 -12 -2z"/>
<path d="M4596 3304 c-5 -14 -4 -15 9 -4 17 14 19 20 6 20 -5 0 -12 -7 -15
-16z"/>
<path d="M4306 3277 c3 -10 9 -15 12 -12 3 3 0 11 -7 18 -10 9 -11 8 -5 -6z"/>
<path d="M4564 3269 c-10 -17 9 -30 26 -18 12 9 12 10 -4 5 -13 -5 -17 -2 -12
9 6 17 0 20 -10 4z"/>
<path d="M4350 3230 c8 -5 24 -10 34 -10 26 0 18 6 -19 14 -22 5 -26 4 -15 -4z"/>
<path d="M4498 3223 c6 -2 18 -2 25 0 6 3 1 5 -13 5 -14 0 -19 -2 -12 -5z"/>
</g>
</svg>
